<svg height="512" viewBox="0 0 64 64" width="512" xmlns="http://www.w3.org/2000/svg"><g id="cloud"><path d="m34 53 1 4h-6l1-4z" fill="#00b6bd"/><path d="m35 57h-2l-1-4h2z" fill="#009698"/><path d="m61 31a7 7 0 0 1 -7 7h-44a7 7 0 0 1 0-14h.84a9.994 9.994 0 0 1 17.3-9.8 12.991 12.991 0 1 1 23.09 9.8h2.77a7 7 0 0 1 7 7z" fill="#57a4ff"/><path d="m61 31a7 7 0 0 1 -7 7h-4a7 7 0 0 0 0-14h-2.77a12.98 12.98 0 0 0 -8.21-20.84 11.758 11.758 0 0 1 1.98-.16 12.984 12.984 0 0 1 10.23 21h2.77a7 7 0 0 1 7 7z" fill="#2488ff"/><path d="m47 49v2a2.006 2.006 0 0 1 -2 2h-26a2.006 2.006 0 0 1 -2-2v-2z" fill="#c6c5ca"/><path d="m47 35v14h-30v-14a2.006 2.006 0 0 1 2-2h26a2.006 2.006 0 0 1 2 2z" fill="#46f8ff"/><path d="m40 31v4l-1.98.49 1.05 1.75-2.83 2.83-1.75-1.05-.49 1.98h-4l-.49-1.98-1.75 1.05-2.83-2.83 1.05-1.75-1.98-.49v-4l1.98-.49-1.05-1.75 2.83-2.83 1.75 1.05.49-1.98h4l.49 1.98 1.75-1.05 2.83 2.83-1.05 1.75z" fill="#c0ab91"/><path d="m40 35-1.98.49 1.05 1.75-2.83 2.83-1.75-1.05-.49 1.98h-4l-.49-1.98-1.75 1.05-1.21-1.21a12.484 12.484 0 0 0 8.45-4.86 12.048 12.048 0 0 0 2.28-7.03l1.79 1.79-1.05 1.75 1.98.49z" fill="#b39a7c"/><path d="m38.4 57 1.47 4h-15.74l1.47-4h3.4 6z" fill="#c6c5ca"/><path d="m47 49v2a2.006 2.006 0 0 1 -2 2h-4a2.006 2.006 0 0 0 2-2v-2z" fill="#acabb1"/><path d="m47 35v14h-4v-14a2.006 2.006 0 0 0 -2-2h4a2.006 2.006 0 0 1 2 2z" fill="#00d7df"/><path d="m39.87 61h-4l-1.47-4h4z" fill="#acabb1"/><circle cx="32" cy="33" fill="#ffde55" r="3"/><path d="m54 23h-.88a13.994 13.994 0 0 0 -12.12-21 14.041 14.041 0 0 0 -13.41 10.04 11 11 0 0 0 -18.17 10.98 8 8 0 0 0 .58 15.98h6v12a3.009 3.009 0 0 0 3 3h9.72l-.5 2h-2.62a.992.992 0 0 0 -.94.66l-1.47 4a1 1 0 0 0 .94 1.34h15.74a1 1 0 0 0 .94-1.34l-1.47-4a.992.992 0 0 0 -.94-.66h-2.62l-.5-2h9.72a3.009 3.009 0 0 0 3-3v-12h6a8 8 0 0 0 0-16zm-16.3 35 .74 2h-12.88l.74-2zm-7.42-2 .5-2h2.44l.5 2zm15.72-5a1 1 0 0 1 -1 1h-26a1 1 0 0 1 -1-1v-1h28zm0-3h-28v-13a1 1 0 0 1 1-1h4v1a1 1 0 0 0 .76.97l.67.17-.36.59a1 1 0 0 0 .15 1.22l2.83 2.83a1.014 1.014 0 0 0 1.22.15l.59-.36.17.67a1 1 0 0 0 .97.76h4a1 1 0 0 0 .97-.76l.17-.67.59.36a1.014 1.014 0 0 0 1.22-.15l2.83-2.83a1 1 0 0 0 .15-1.22l-.36-.59.67-.17a1 1 0 0 0 .76-.97v-1h4a1 1 0 0 1 1 1zm-19.16-18.01-.65-1.08 1.72-1.72 1.08.64a.987.987 0 0 0 .9.07 1.007 1.007 0 0 0 .59-.68l.3-1.22h2.44l.3 1.22a1.007 1.007 0 0 0 .59.68.989.989 0 0 0 .9-.07l1.08-.64 1.72 1.72-.65 1.08a1.019 1.019 0 0 0 -.06.9 1.007 1.007 0 0 0 .68.59l1.22.3v2.44l-1.22.3a1.007 1.007 0 0 0 -.68.59 1.019 1.019 0 0 0 .06.9l.65 1.08-1.72 1.72-1.08-.65a1.019 1.019 0 0 0 -.9-.06 1.007 1.007 0 0 0 -.59.68l-.3 1.22h-2.44l-.3-1.22a1.007 1.007 0 0 0 -.59-.68 1.019 1.019 0 0 0 -.9.06l-1.08.65-1.72-1.72.65-1.08a1.019 1.019 0 0 0 .06-.9 1.007 1.007 0 0 0 -.68-.59l-1.22-.3v-2.44l1.22-.3a1.007 1.007 0 0 0 .68-.59 1.019 1.019 0 0 0 -.06-.9zm27.16 7.01h-6v-2a3.009 3.009 0 0 0 -3-3h-4v-1a1 1 0 0 0 -.76-.97l-.67-.17.36-.59a1 1 0 0 0 -.15-1.22l-2.83-2.83a1.012 1.012 0 0 0 -1.22-.15l-.59.36-.17-.67a1 1 0 0 0 -.97-.76h-4a1 1 0 0 0 -.97.76l-.17.67-.59-.36a1.012 1.012 0 0 0 -1.22.15l-2.83 2.83a1 1 0 0 0 -.15 1.22l.36.59-.67.17a1 1 0 0 0 -.76.97v1h-4a3.009 3.009 0 0 0 -3 3v2h-6a6 6 0 0 1 0-12h.84a1.013 1.013 0 0 0 .84-.45 1.034 1.034 0 0 0 .08-.95 8.747 8.747 0 0 1 -.76-3.6 9 9 0 0 1 16.33-5.22.991.991 0 0 0 1.05.39 1 1 0 0 0 .75-.83 11.992 11.992 0 0 1 23.87 1.66 11.818 11.818 0 0 1 -2.56 7.38 1 1 0 0 0 .79 1.62h2.77a6 6 0 0 1 0 12z"/><path d="m41 6v2a8.009 8.009 0 0 1 8 8h2a10.011 10.011 0 0 0 -10-10z"/><path d="m13 20h2a5.006 5.006 0 0 1 5-5v-2a7.008 7.008 0 0 0 -7 7z"/><path d="m32 37a4 4 0 1 0 -4-4 4 4 0 0 0 4 4zm0-6a2 2 0 1 1 -2 2 2 2 0 0 1 2-2z"/><path d="m52 41h2v2h-2z"/><path d="m52 48h-2v2h3a1 1 0 0 0 1-1v-4h-2z"/><path d="m10 41h2v2h-2z"/><path d="m12 45h-2v4a1 1 0 0 0 1 1h3v-2h-2z"/></g></svg>